:SAMPLES-PER-SECOND 30
:FRAME-RANGE 1-2091
:FULLY-SPECIFIED
:DEGREES
1895
root  -5.44956 39.9309 -19.6709 0.340744 -62.5418 -1.46902
RightUpLeg  8.59679 -7.89251 -4.67087
RightLeg  2.85048 -8.31522 1.46096
RightFoot  -8.44278 -0.275107 8.58513
RightToes  5.82063e-011 0 -3.6325e-017
Spine  5.05491 -0.753281 5.16736
Spine1  2.09363 -0.534372 -0.587406
HEad  10.9293 -9.56687 -3.78957
LeftShoulder1  1.55841 -0.873106 -29.54
LeftArm  10.401 16.0969 -24.1397
LeftForeArm  3.23261 -6.89296 -16.4845
LeftHand  0.2768 0.375703 -6.51655
RightShoulder  6.71098 16.4694 27.5259
RightArm  -38.6531 7.57794 16.4232
RightForeArm  26.2885 44.8513 9.3098
RightHand  -3.81653 24.4177 -15.1269
LeftUpLeg  -26.1446 37.3932 -9.72687
LeftLeg  15.8159 3.37715 0.994362
LeftFoot  -4.69465 0.300596 -4.69053
LeftToes  -6.27584e-011 -2.25241e-010 2.80627e-011
1896
root  -6.26444 39.7733 -19.1933 1.0257 -61.0383 -2.29753
RightUpLeg  11.1494 -7.90678 -4.51243
RightLeg  1.56114 -9.4048 1.87057
RightFoot  -9.56344 -0.210848 9.37079
RightToes  5.82063e-011 0 -3.6325e-017
Spine  4.4749 -0.952396 4.93256
Spine1  2.14606 -0.525462 -1.58875
HEad  11.6607 -9.9257 -3.0066
LeftShoulder1  1.59876 -1.02527 -29.231
LeftArm  7.88778 16.5917 -22.6645
LeftForeArm  4.45393 -4.25219 -17.3015
LeftHand  0.26808 0.685615 -6.77989
RightShoulder  6.62646 16.2697 27.4379
RightArm  -37.1011 8.57437 16.7759
RightForeArm  24.9433 46.0216 9.83564
RightHand  -3.79332 23.9385 -15.2775
LeftUpLeg  -19.931 24.3108 -2.15155
LeftLeg  8.19686 24.955 -3.91945
LeftFoot  -4.37906 0.274589 -4.08132
LeftToes  -6.27584e-011 -2.25241e-010 2.80627e-011
1897
root  -7.04965 39.5333 -18.6167 1.97272 -60.1386 -3.73718
RightUpLeg  12.7689 -7.61379 -3.96682
RightLeg  2.58901 -10.2202 1.62248
RightFoot  -11.468 -0.0666213 10.3537
RightToes  5.82063e-011 0 -3.6325e-017
Spine  4.09603 -1.0237 4.63839
Spine1  2.45431 -0.545404 -1.79268
HEad  11.8464 -10.1157 -2.51934
LeftShoulder1  1.59488 -1.00915 -29.2716
LeftArm  5.65127 16.5002 -21.6721
LeftForeArm  4.56895 -1.5692 -17.9246
LeftHand  0.273575 0.966576 -7.4063
RightShoulder  6.78187 16.3921 28.0295
RightArm  -33.2336 10.3484 15.8423
RightForeArm  23.0459 44.532 9.4233
RightHand  -4.03231 22.1832 -17.1977
LeftUpLeg  -17.0958 16.5123 0.876778
LeftLeg  3.5478 38.1335 -7.06283
LeftFoot  -4.23138 0.242226 -3.48982
LeftToes  -6.27584e-011 -2.25241e-010 2.80627e-011
1898
root  -7.85643 39.2013 -17.9431 2.58253 -58.9505 -5.0654
RightUpLeg  14.3667 -8.3538 -4.30809
RightLeg  4.84794 -9.74535 1.99301
RightFoot  -13.9383 0.172581 11.7636
RightToes  5.82063e-011 0 -3.6325e-017
Spine  3.64644 -1.11869 3.66404
Spine1  3.06736 -0.842887 -1.08138
HEad  11.8814 -10.8667 -1.837
LeftShoulder1  1.59401 -0.997029 -29.3487
LeftArm  4.88331 15.7613 -21.3112
LeftForeArm  3.62593 0.77169 -18.4043
LeftHand  0.276227 1.30714 -8.16867
RightShoulder  7.05749 16.2528 29.7086
RightArm  -26.2436 12.7501 13.5517
RightForeArm  20.0466 41.1558 8.48207
RightHand  -4.21567 18.8811 -20.3022
LeftUpLeg  -16.161 16.431 0.253629
LeftLeg  4.78561 36.4634 -5.87934
LeftFoot  -4.14276 0.237364 -3.37791
LeftToes  -6.27584e-011 -2.25241e-010 2.80627e-011
1899
root  -8.68777 38.9486 -17.1902 2.04532 -57.3448 -5.31409
RightUpLeg  16.3534 -9.5523 -5.32378
RightLeg  7.05943 -8.88114 2.03936
RightFoot  -15.4505 0.386753 13.6566
RightToes  5.82063e-011 0 -3.6325e-017
Spine  3.31693 -1.27073 1.91881
Spine1  3.82344 -1.13771 -0.521443
HEad  12.0227 -12.7228 -0.954253
LeftShoulder1  1.63212 -1.11323 -29.2832
LeftArm  6.90739 14.4726 -21.6048
LeftForeArm  0.964418 1.94816 -18.9155
LeftHand  0.251016 1.81776 -8.63067
RightShoulder  7.32176 15.6338 32.2855
RightArm  -15.8541 14.9484 10.204
RightForeArm  15.0283 37.6131 7.7185
RightHand  -3.80565 13.7643 -23.107
LeftUpLeg  -16.3671 16.9758 -1.78318
LeftLeg  8.72359 31.8583 -2.68202
LeftFoot  -4.22601 -0.337495 5.83357
LeftToes  -6.27584e-011 -2.25241e-010 2.80627e-011
1900
root  -9.45753 38.7072 -16.3933 0.434769 -55.7031 -4.4924
RightUpLeg  17.2261 -14.4763 -8.18647
RightLeg  12.4372 -3.32045 0.845652
RightFoot  -16.7394 0.698519 17.1236
RightToes  5.82063e-011 0 -3.6325e-017
Spine  4.20219 -1.25003 -0.78436
Spine1  3.22638 -1.54888 0.787101
HEad  12.5742 -15.7207 0.130061
LeftShoulder1  1.64917 -1.08915 -29.8488
LeftArm  9.71634 12.5409 -21.9196
LeftForeArm  -1.41378 2.27916 -19.3463
LeftHand  0.227032 2.06265 -8.48288
RightShoulder  7.50114 14.2711 36.2108
RightArm  -9.48685 14.6898 7.74682
RightForeArm  16.2883 37.4839 7.6022
RightHand  -2.23777 7.17671 -20.7731
LeftUpLeg  -17.518 20.4316 -4.95599
LeftLeg  13.994 26.4952 2.47134
LeftFoot  -2.03481 -0.991126 12.277
LeftToes  -6.27584e-011 -2.25241e-010 2.80627e-011
1901
root  -10.1651 38.4536 -15.6172 -1.12997 -53.469 -3.25076
RightUpLeg  15.5355 -17.2532 -10.5212
RightLeg  21.6117 0.255793 -0.102849
RightFoot  -16.7422 0.945681 22.2182
RightToes  5.82063e-011 0 -3.6325e-017
Spine  4.8613 -1.2468 -3.15999
Spine1  2.91805 -1.87649 1.41911
HEad  13.0102 -20.301 1.61159
LeftShoulder1  1.69234 -1.18067 -30.0732
LeftArm  12.0635 9.49398 -23.2575
LeftForeArm  -2.40209 1.37361 -19.5325
LeftHand  0.202665 2.3125 -8.31102
RightShoulder  7.23978 11.9926 40.5814
RightArm  -10.5614 11.5574 7.44271
RightForeArm  28.5899 39.1136 7.30538
RightHand  -0.370717 -0.167017 -8.26775
LeftUpLeg  -19.313 25.9682 -8.90526
LeftLeg  19.3121 17.7146 6.76052
LeftFoot  -4.03515 -0.6646 10.7573
LeftToes  -6.27584e-011 -2.25241e-010 2.80627e-011
1902
root  -10.6979 38.2927 -14.8685 -2.88995 -52.9142 -1.5537
RightUpLeg  11.057 -14.0624 -11.9221
RightLeg  32.8686 0.46848 0.0849607
RightFoot  -12.8835 0.30824 28.8971
RightToes  5.82063e-011 0 -3.6325e-017
Spine  5.32386 -0.490481 -4.74312
Spine1  3.55756 -1.25111 0.0943814
HEad  12.8777 -24.6833 2.3946
LeftShoulder1  1.75528 -1.31091 -30.4089
LeftArm  14.9916 5.88916 -25.0738
LeftForeArm  -3.7946 0.429334 -19.6854
LeftHand  0.212857 2.01442 -7.85325
RightShoulder  6.6704 9.9497 43.2744
RightArm  1.35001 6.29126 9.25817
RightForeArm  27.2459 35.9008 6.48973
RightHand  -0.34004 -0.613457 -8.24542
LeftUpLeg  -18.3744 26.0938 -9.57155
LeftLeg  21.8243 17.5818 7.19404
LeftFoot  -6.37783 -0.431048 10.7995
LeftToes  -6.27584e-011 -2.25241e-010 2.80627e-011
1903
root  -11.1852 38.2116 -14.1096 -4.14182 -52.7507 0.0484314
RightUpLeg  4.18462 -9.53035 -12.7654
RightLeg  45.1845 -0.0749899 -0.38543
RightFoot  -4.04016 -1.95019 29.5019
RightToes  5.82063e-011 0 -3.6325e-017
Spine  5.7321 -0.157476 -6.49287
Spine1  3.6378 -1.06285 -0.78719
HEad  12.8022 -27.0702 2.16867
LeftShoulder1  1.7523 -1.27609 -30.614
LeftArm  14.6265 3.59117 -27.0723
LeftForeArm  -2.50086 0.226813 -19.5392
LeftHand  0.219988 1.64945 -7.22697
RightShoulder  6.21453 8.64141 44.7414
RightArm  14.4047 1.45163 11.7204
RightForeArm  25.7997 29.5429 4.99455
RightHand  -0.336563 -0.626006 -8.18073
LeftUpLeg  -16.9846 24.4651 -9.65502
LeftLeg  23.2674 19.3351 6.93998
LeftFoot  -8.40479 -0.223538 10.667
LeftToes  -6.27584e-011 -2.25241e-010 2.80627e-011
1904
root  -11.6426 38.1037 -13.4191 -5.23148 -51.644 1.36078
RightUpLeg  -3.22688 -6.36688 -13.385
RightLeg  56.4158 -0.113781 -0.606756
RightFoot  7.7033 -3.06635 18.4537
RightToes  5.82063e-011 0 -3.6325e-017
Spine  6.8528 -0.36213 -9.40021
Spine1  3.19376 -1.90888 0.249052
HEad  12.2319 -28.2451 1.73297
LeftShoulder1  1.75213 -1.17392 -31.4161
LeftArm  13.0647 1.36891 -28.6336
LeftForeArm  0.18692 -1.2256 -18.991
LeftHand  0.237077 1.17124 -6.79037
RightShoulder  5.47813 7.10174 45.1927
RightArm  29.7252 -2.60529 13.51
RightForeArm  21.9614 22.7888 4.01647
RightHand  -0.251109 -1.40254 -7.17439
LeftUpLeg  -15.8241 22.0789 -10.1179
LeftLeg  24.7869 20.7422 7.36082
LeftFoot  -10.1846 -0.0408977 10.1087
LeftToes  -6.27584e-011 -2.25241e-010 2.80627e-011
1905
root  -12.0881 38.0929 -12.7384 -5.34499 -49.5568 1.22768
RightUpLeg  -8.57018 -3.52719 -12.9898
RightLeg  64.4859 -0.952414 -2.77098
RightFoot  6.25183 -2.86315 18.632
RightToes  5.82063e-011 0 -3.6325e-017
Spine  8.0481 -1.01819 -10.4907
Spine1  3.01322 -2.8579 0.0215218
HEad  11.3546 -29.5402 2.10349
LeftShoulder1  1.83723 -1.45239 -31.0294
LeftArm  12.1872 -1.28854 -31.2106
LeftForeArm  2.52396 -2.56032 -18.4321
LeftHand  0.226219 0.808106 -5.91179
RightShoulder  4.27066 4.66327 45.7908
RightArm  34.9051 -6.13827 13.7312
RightForeArm  26.4958 16.9472 8.44431
RightHand  -0.220387 -1.89766 -7.09307
LeftUpLeg  -14.2405 19.2674 -9.93374
LeftLeg  25.7181 21.5662 7.64086
LeftFoot  -11.6401 0.0938317 9.06155
LeftToes  -6.27584e-011 -2.25241e-010 2.80627e-011
1906
root  -12.5439 38.1526 -12.0219 -4.76144 -47.2346 0.55957
RightUpLeg  -13.8886 -0.163565 -11.843
RightLeg  69.979 -1.35185 -4.92431
RightFoot  4.24947 -2.40564 17.6583
RightToes  5.82063e-011 0 -3.6325e-017
Spine  8.4622 -1.73428 -11.7178
Spine1  3.11213 -4.00921 0.749116
HEad  11.1871 -30.4692 1.63682
LeftShoulder1  1.9337 -1.67784 -31.2827
LeftArm  10.0536 -4.42985 -33.8431
LeftForeArm  6.09063 -2.81665 -17.9876
LeftHand  0.197845 0.409134 -4.71053
RightShoulder  2.91521 2.1293 45.3492
RightArm  31.3405 -9.27202 12.6077
RightForeArm  37.7454 8.92402 13.9503
RightHand  -0.247173 -1.52281 -7.26354
LeftUpLeg  -12.4026 14.4268 -9.19795
LeftLeg  25.9093 24.0206 7.53833
LeftFoot  -12.8086 0.178131 7.87361
LeftToes  -6.27584e-011 -2.25241e-010 2.80627e-011
1907
root  -13.009 38.2737 -11.262 -3.53151 -44.3804 -0.505402
RightUpLeg  -18.9177 2.30052 -10.6951
RightLeg  72.6948 -1.69002 -7.06923
RightFoot  2.97434 -2.01896 16.142
RightToes  5.82063e-011 0 -3.6325e-017
Spine  8.58323 -2.78684 -13.2477
Spine1  2.67809 -5.59748 2.79458
HEad  11.7525 -30.8216 0.853862
LeftShoulder1  1.92086 -1.63515 -31.3427
LeftArm  11.0183 -7.45173 -36.9493
LeftForeArm  6.63716 -3.68728 -17.7146
LeftHand  0.157792 0.398684 -3.75904
RightShoulder  1.43349 -0.610157 43.5129
RightArm  34.604 -12.1798 10.8395
RightForeArm  43.5727 3.29711 16.5358
RightHand  -0.235977 -1.81361 -7.44951
LeftUpLeg  -10.6031 10.4651 -8.58809
LeftLeg  24.9067 25.131 6.85421
LeftFoot  -13.6594 0.227557 7.17335
LeftToes  -6.27584e-011 -2.25241e-010 2.80627e-011
